<?xml version="1.0" encoding="utf-8"?>
<!-- Generator: Adobe Illustrator 27.0.0, SVG Export Plug-In . SVG Version: 6.00 Build 0)  -->
<svg version="1.1" id="Шар_1" xmlns="http://www.w3.org/2000/svg" xmlns:xlink="http://www.w3.org/1999/xlink" x="0px" y="0px"
	 viewBox="0 0 238.9 238.9" style="enable-background:new 0 0 238.9 238.9;" xml:space="preserve">
<style type="text/css">
	.st0{fill:#FFB635;}
	.st1{fill:none;stroke:#000000;stroke-width:9;stroke-linecap:round;stroke-miterlimit:10;}
</style>
<g>
	<g>
		<g id="_x33_1_x2C__Tac_x2C__Toe_x2C__Tic_x2C__Tic_Tac_Toe_x2C__Game_00000119836796424106430150000008516508794888444568_">
			<g>
				<path d="M217.7,0.4H177c-2.9,0-5.4,2.5-5.4,5.4c0,2.9,2.5,5,5.4,5h40.7c6.2,0,11.2,5,11.2,11.2v195.7c0,6.2-5,11.2-11.2,11.2
					H21.6c-6.2,0-11.2-5-11.2-11.2V21.6c0-6.2,5-11.2,11.2-11.2H130c2.9,0,5.4-2.5,5.4-5c0-2.9-2.5-5.4-5.4-5.4H21.6
					C9.6,0,0,9.6,0,21.6v195.7c0,12,9.6,21.6,21.6,21.6h195.7c12,0,21.6-9.6,21.6-21.6V21.6C238.9,10,229.3,0.4,217.7,0.4z"/>
				<path d="M150.8,10.8c2.9,0,5.4-2.5,5.4-5c0-2.9-2.5-5.4-5.4-5.4s-5.4,2.5-5.4,5.4C145.8,8.3,147.9,10.8,150.8,10.8z"/>
			</g>
		</g>
	</g>
	<g>
		<path class="st0" d="M92.7,19.5v61.7h61.7V19.5H92.7z"/>
		<path class="st0" d="M162.1,89.2v61.7h61.7V89.2H162.1z"/>
		<path class="st0" d="M23,89.2v61.7h61.7V89.2H23z"/>
		<path class="st0" d="M92.7,156.5v61.7h61.7v-61.7H92.7z"/>
		<g>
			<g>
				<g>
					<circle cx="53.8" cy="53.5" r="25.2"/>
				</g>
				<g>
					<path class="st0" d="M53.8,80.4c-14.8,0-26.9-12.1-26.9-26.9S39,26.6,53.8,26.6s26.9,12.1,26.9,26.9S68.6,80.4,53.8,80.4z
						 M53.8,30c-13,0-23.6,10.6-23.6,23.6s10.6,23.6,23.6,23.6s23.6-10.6,23.6-23.6S66.8,30,53.8,30z"/>
				</g>
			</g>
			<g>
				<g>
					<path class="st0" d="M53.8,68.6c-8.3,0-15.1-6.8-15.1-15.1s6.8-15.1,15.1-15.1s15.1,6.8,15.1,15.1S62.1,68.6,53.8,68.6z
						 M53.8,41.7C47.3,41.7,42,47,42,53.5s5.3,11.8,11.8,11.8S65.6,60,65.6,53.5S60.3,41.7,53.8,41.7z"/>
				</g>
			</g>
		</g>
		<g>
			<g>
				<g>
					<circle cx="124.2" cy="120.9" r="25.2"/>
				</g>
				<g>
					<path class="st0" d="M124.2,147.8c-14.8,0-26.9-12.1-26.9-26.9S109.4,94,124.2,94s26.9,12.1,26.9,26.9S139,147.8,124.2,147.8z
						 M124.2,97.3c-13,0-23.6,10.6-23.6,23.6c0,13,10.6,23.6,23.6,23.6s23.6-10.6,23.6-23.6C147.8,107.9,137.2,97.3,124.2,97.3z"/>
				</g>
			</g>
			<g>
				<g>
					<path class="st0" d="M124.2,136c-8.3,0-15.1-6.8-15.1-15.1s6.8-15.1,15.1-15.1s15.1,6.8,15.1,15.1S132.5,136,124.2,136z
						 M124.2,109.1c-6.5,0-11.8,5.3-11.8,11.8c0,6.5,5.3,11.8,11.8,11.8c6.5,0,11.8-5.3,11.8-11.8
						C136,114.4,130.7,109.1,124.2,109.1z"/>
				</g>
			</g>
		</g>
		<g>
			<g>
				<g>
					<circle cx="193" cy="53.5" r="25.2"/>
				</g>
				<g>
					<path class="st0" d="M193,80.4c-14.8,0-26.9-12.1-26.9-26.9s12.1-26.9,26.9-26.9c14.8,0,26.9,12.1,26.9,26.9
						S207.8,80.4,193,80.4z M193,30c-13,0-23.6,10.6-23.6,23.6c0,13,10.6,23.6,23.6,23.6c13,0,23.6-10.6,23.6-23.6
						C216.6,40.5,206,30,193,30z"/>
				</g>
			</g>
			<g>
				<g>
					<path class="st0" d="M193,68.6c-8.3,0-15.1-6.8-15.1-15.1s6.8-15.1,15.1-15.1c8.3,0,15.1,6.8,15.1,15.1S201.3,68.6,193,68.6z
						 M193,41.8c-6.5,0-11.8,5.3-11.8,11.8s5.3,11.8,11.8,11.8c6.5,0,11.8-5.3,11.8-11.8S199.5,41.8,193,41.8z"/>
				</g>
			</g>
		</g>
		<g>
			<g>
				<g>
					<circle cx="193" cy="187.3" r="25.2"/>
				</g>
				<g>
					<path class="st0" d="M193,214.2c-14.8,0-26.9-12.1-26.9-26.9c0-14.8,12.1-26.9,26.9-26.9c14.8,0,26.9,12.1,26.9,26.9
						C219.9,202.1,207.8,214.2,193,214.2z M193,163.7c-13,0-23.6,10.6-23.6,23.6c0,13,10.6,23.6,23.6,23.6c13,0,23.6-10.6,23.6-23.6
						C216.6,174.3,206,163.7,193,163.7z"/>
				</g>
			</g>
			<g>
				<g>
					<path class="st0" d="M193,202.4c-8.3,0-15.1-6.8-15.1-15.1c0-8.3,6.8-15.1,15.1-15.1c8.3,0,15.1,6.8,15.1,15.1
						C208.1,195.6,201.3,202.4,193,202.4z M193,175.5c-6.5,0-11.8,5.3-11.8,11.8c0,6.5,5.3,11.8,11.8,11.8c6.5,0,11.8-5.3,11.8-11.8
						C204.8,180.8,199.5,175.5,193,175.5z"/>
				</g>
			</g>
		</g>
		<g>
			<g>
				<g>
					<circle cx="55.5" cy="187.3" r="25.2"/>
				</g>
				<g>
					<path class="st0" d="M55.5,214.2c-14.8,0-26.9-12.1-26.9-26.9c0-14.8,12.1-26.9,26.9-26.9s26.9,12.1,26.9,26.9
						C82.4,202.1,70.3,214.2,55.5,214.2z M55.5,163.7c-13,0-23.6,10.6-23.6,23.6c0,13,10.6,23.6,23.6,23.6S79,200.3,79,187.3
						C79,174.3,68.5,163.7,55.5,163.7z"/>
				</g>
			</g>
			<g>
				<g>
					<path class="st0" d="M55.5,202.4c-8.3,0-15.1-6.8-15.1-15.1c0-8.3,6.8-15.1,15.1-15.1s15.1,6.8,15.1,15.1
						C70.6,195.6,63.8,202.4,55.5,202.4z M55.5,175.5c-6.5,0-11.8,5.3-11.8,11.8c0,6.5,5.3,11.8,11.8,11.8s11.8-5.3,11.8-11.8
						C67.2,180.8,62,175.5,55.5,175.5z"/>
				</g>
			</g>
		</g>
		<line class="st1" x1="89" y1="20.1" x2="89" y2="223.8"/>
		<line class="st1" x1="158.7" y1="20.1" x2="158.7" y2="223.8"/>
		<line class="st1" x1="17.8" y1="154.9" x2="221.5" y2="154.9"/>
		<line class="st1" x1="17.8" y1="85.2" x2="221.5" y2="85.2"/>
	</g>
</g>
</svg>
